<?xml version="1.0" encoding="UTF-8"?>
<svg id="Layer_2" data-name="Layer 2" xmlns="http://www.w3.org/2000/svg" viewBox="0 0 95.74 206.03">
  <defs>
    <style>
      .cls-1 {
        font-family: MyriadConceptRoman-Semibold, 'Myriad Variable Concept';
        font-size: 7.59px;
        font-variation-settings: 'wght' 600, 'wdth' 100;
        font-weight: 600;
      }

      .cls-1, .cls-2 {
        fill: #cfb53b;
      }

      .cls-3 {
        fill: #fff;
      }

      .cls-4 {
        fill: #a7a9ac;
      }

      .cls-5 {
        stroke: #414042;
      }

      .cls-5, .cls-6 {
        stroke-width: .62px;
      }

      .cls-5, .cls-6, .cls-7 {
        fill: none;
        stroke-linecap: round;
        stroke-linejoin: round;
      }

      .cls-8 {
        letter-spacing: .11em;
      }

      .cls-6, .cls-7 {
        stroke: #fff;
      }

      .cls-7 {
        stroke-width: .76px;
      }

      .cls-9 {
        letter-spacing: .1em;
      }

      .cls-10 {
        letter-spacing: .09em;
      }

      .cls-11 {
        letter-spacing: .1em;
      }

      .cls-12 {
        letter-spacing: .09em;
      }

      .cls-13 {
        fill: #808285;
      }

      .cls-14 {
        fill: #d1d3d4;
      }

      .cls-15 {
        fill: #58595b;
      }
    </style>
  </defs>
  <g id="Layer_1-2" data-name="Layer 1">
    <g>
      <circle class="cls-15" cx="25.67" cy="199.18" r=".23"/>
      <circle class="cls-2" cx="23.44" cy="153.61" r="10.29"/>
      <path class="cls-4" d="M74.88,144.11c1.07,2.6,1.52,5.83,1.33,9.71-1.57,4.11-3.83,3.72-6.45,.76-1.98-2.51-3.34-5.06-3.08-7.68-.26-3.47-1.39-5.99-2.66-8.35-1.73-1.86-2.21-3.54-1.98-5.11,.34-1.86,1.18-2.92,2.54-3.16,.34-1.4,.39-2.87,.12-4.3-1.29-2.09-1.4-3.8-.68-5.26l.17-.26c-.89-1.49-1.35-2.88-.89-4.04,.02-.3-.07-.58-.25-.82-1.07-1.65-1.55-3.99-1.9-6.46-.61-2.68-1.59-5.28-2.91-7.72l-1.09-2.45-.1-.06c-.62-.36-1.07-.96-1.26-1.65l-1.81-6.48-.34-1.43c-.09-.05-.17-.07-.27-.07-.29,0-.53,.22-.56,.52l-.14,1.67-.71,4.21s-.04,.11-.07,.15c-.22,.2-.4,.45-.52,.72-.22,.6-.4,1.22-.5,1.85-.04,.24-.05,.48-.02,.72,.21,2.26,.45,4.59,.22,5.85-.07,.4-.09,.8-.02,1.19,.48,1.88,.09,3.92-.86,6.05,.04,.61,.02,1.21-.05,1.81,1.22,2.49,1.88,5.21,1.91,7.97,0,1.34-.15,2.66-.45,3.96l.24,8.89c.01,.52-.05,1.06-.17,1.57l-.25,1.01c-.25,1.63-.45,3.26,.44,4.61,.47,.86,.51,1.89,.12,2.78-.06,.46,.07,.92,.39,1.27l.75,3.32c.25,1.94,.63,3.67,1.45,4.81,.82,1.22,1.27,2.45,.96,3.68l-.36,1.42c.02,.06,.04,.14,.02,.21l-.09,.52c-.02,.11-.1,.21-.21,.26l-.16,.09c-.15,.07-.34,.02-.44-.11l-.32-.45s-.05-.07-.06-.11l-4.57,1.28v.06c.02,.11-.02,.24-.1,.32l-.15,.12c-.12,.11-.3,.12-.43,.02l-.45-.32c-.12-.09-.17-.24-.15-.37l-1.63-.45c-1.33-1.78-1.59-3.77-.75-6.02,.24-1.19-.05-2.44-.77-3.42-.3,.63-.89,.85-1.81,.63,.19-1.18,.85-2.24,1.81-2.95,.19-.75,.17-1.53-.04-2.27-.35-1.06-.46-2.16-.31-3.26,.04-1.74-.15-3.47-.56-5.15l-3.19-12.48c-1.44-3.43-1.22-7.67-.34-12.24-.2-1.03,.29-4.35,.53-4.85-1.19-2.42-3.69-10.53-3.94-13.24-.02-.07-.09-.14-.17-.15l-.56-.1c-1.52-.72-3.18-24.91-1.19-27,.32-.34,.12-.92-.09-1.33l-.37-.71-1.39-5.32-1.27-4.3-.56-3.42c-.02-.51-.26-.99-.63-1.33l-2.44-1.96-1.53-2.78c-.17-.32-1.03-.45-1.04-.09,.12,2.15,0,4.3-.37,6.41l-.53,.2c.2,3.27-.81,7.49-2.25,11.11l-1.23,6.25c-.17,1.07-.25,2.15-.21,3.24,.12,.52,.22,.94,.3,1.31,.96,1.26,1.62,2.72,1.94,4.26l.12,1.48,1.44,1.14c.58,.56,.29,.83-.17,1.04l-.97-.37c.19,.37,0,.63-.51,.8l2.5,1.44c.27,.51,.14,.78-.51,.71l-4.67-1.72c.4,.31,.57,.83,.46,1.33,.76,.15,1.44,.55,1.94,1.13,.78,.09,1.53,.41,2.11,.93,.39,.55,.21,.85-.21,1.06l-.51-.05c0,.2-.15,.29-.41,.26-.75-.11-1.44-.39-2.05-.82l-1.94-1.02c-.27-.21-.48-.48-.63-.8-.35-.94-.85-1.83-1.48-2.62-.39-.48-.6-1.09-.58-1.73-.19-1.68-.19-3.38,0-5.06,.2-.75,.2-1.54,0-2.29-.19-.83-.19-1.69,0-2.54,.26-2.34,.36-4.7,.31-7.05-.01-.44-.09-.87-.22-1.28-.7-2.29-.85-6.56-.98-10.9l-.43-.85,.67-5.32,.86-4.05c-1.83-4.42-.43-8.96,2.78-13.58l1.84-1.14,3.29-2.09,2.21-1.7c-.19-.63-.47-1.24-.82-1.8l-1.88-2.64c-1.17-1.27-1.88-2.91-1.98-4.64,.04-.4-.01-.8-.14-1.18-.37-.56-.39-1.42-.3-2.36-.4-1.04-.43-2.77-.34-4.77,.58-2.37,2.21-4.34,4.9-5.95,2.22-.53,4.51-.62,6.76-.25,1.45,.55,2.67,1.58,3.47,2.91,.96,1.81,1.38,3.87,1.22,5.9,1.11,.21,1.08,1.04,1.14,2.35,.06,1.12-1.14,3.11-1.14,3.11-.32,.11-.22,2.98,1.01,4.11,4.24,.32,9.31,1.49,14.85,3.09,4.85,1.5,8.2,6.3,11.2,11.87,.07,.14,.14,.27,.2,.41l2.13,5.27,.02,.09v.35s-.01,.07-.02,.11c-.01,.05-.04,.1-.07,.15v.04c-.11,.21-.3,.37-.52,.45l-8.53,2.88h-.04l-.12,.04h-.11c-.34,.07-.68-.04-.92-.29l-.4-.45-.24-.09h-.02c-.45-.3-.88-.63-.88-.63-.19-.14-.45-.1-.58,.09-.09,.1-.11,.24-.07,.36l.34,.94c.07,.22,.14,.45,.19,.66l.66,2.54c.14,.58,.34,1.14,.58,1.68l1.94,4.23c.1,.22,.26,.43,.44,.6l1.24,1.14,.07,.16v.04c-.02,.06-.05,.14-.06,.2-.06,.17-.12,.35-.19,.52-.16,.48-.31,.99-.45,1.5-.06,.51-.81,1.64-1.8,2.91-2.08,2.62-5.2,5.92-5.47,5.85-.99,.45-2.04,.78-3.11,.99-.1,.01-.19,.05-.27,.09l-.31,.19-1.52,1.59-.32,.31-1.57,1.63c-.12,.12-.2,.27-.24,.45-.01,.09-.01,.17,0,.26-.01,.06-.01,.14,0,.21-.02,.11-.01,.24,.02,.35,.07,.25,.34,.4,.58,.34-.29,.68-.61,1.78-.65,1.85-.16,.25-.25,.55-.24,.85-.01,.06-.01,.14,0,.2v.05c-.01,.06-.01,.14,0,.21v.04c-.05,.15,0,.32,.14,.41,.07,.05,.16,.09,.26,.09,.07,.01,.15,0,.22-.04,.04-.02,.07-.05,.1-.09,.02-.02,.04-.05,.05-.07,.01-.02,.02-.05,.02-.07,.04-.01,.07-.04,.1-.07,.14-.09,.22-.22,.26-.37l.02-.1c0-.07,.75-1.09,1.18-1.88,.06-.11,.12-.22,.16-.32,.04-.06,.07-.11,.12-.16,.36-.35,.65-.75,.85-1.21,.02-.04,.04-.07,.05-.11,.05-.11,.16-.2,.29-.21,.15-.01,.3,0,.45,.05h.06s.01-.01,.01-.01c.01,0,.02,.01,.02,.01l.09,.05s.07,.05,.11,.09c.01,.01,.01,.02,.02,.05v.02l-.51,1.18c-.07,0-.06,.44,0,.47v.07c0,.14,0,.41,.07,.41l.66,1.33,.45,.22c-.22,.57-.7,1.99-.83,2.52-.01,.06-.01,.11,0,.16-.01,.04-.01,.07-.01,.12,0,.09,.02,.19,.1,.26,.1,.11,.22,.2,.37,.25,.16,.09,.37,.04,.48-.11l.02-.05c.78-1.09,1.38-2.3,1.76-3.58,.43-.71,.77-1.44,1.02-2.22,.02-.2,.19-.36,.39-.37h.11c.06-.01,.11-.01,.16,0h.09l.06,.04s-.02,.07-.04,.11c0,.04,0,.06-.02,.1-.09,.3-.16,.61-.21,.92s-.05,.63,0,.93l-.17,.26c-.46,.55-.81,1.17-1.02,1.85-.07,.16-.05,.35,.06,.47v.12c.05,.15,.17,.26,.32,.3,.16,.05,.34-.01,.44-.15,.02-.04,.05-.06,.06-.1,0,.02,.06,0,.12-.02h.02l.09-.09c.05-.06,.11-.12,.17-.21v-.02s.09-.1,.11-.16c.02-.02,.05-.05,.07-.09,.04-.06,.09-.12,.12-.19,.25-.36,.47-.75,.67-1.14,.05-.1,.09-.19,.14-.27l.09-.21c.05-.1,.1-.2,.12-.29v-.05c.04-.09,.07-.19,.11-.29,.07-.24,.14-.48,.17-.73,.01-.04,.01-.09,.02-.12,.01-.04,.01-.07,.02-.11l.04-.11c.04-.07,.06-.15,.11-.22,.05-.1,.12-.2,.2-.29,.39-.45,.7-.96,.92-1.5,.1-.25,.24-.47,.39-.7,.62-.82,1.06-1.75,1.29-2.75,.07-.45,.37-.83,.78-1.03,.88-.83,1.76-1.67,2.51-2.49l.21-.22,.32-.35c.34-.37,.63-.73,.93-1.11l.07-.07c.1-.07,.24-.05,.31,.05,.01,.02,.02,.05,.02,.07l.1,.34,1.78,4.26c1.39,1.95,2.44,4.09,2.66,6.48,0,.16,.06,.31,.09,.44,.47,3.63,1.03,7.82,1.62,12.29,.07,.55,.21,1.09,.4,1.62,.81,2.1,1.38,4.29,1.7,6.51-.01,.04-.01,.09,0,.12l.31,3.85c.01,.17-.02,.36-.1,.52l-.19,.43c.39,4.76,.52,9.55,.4,14.32-.04,.86,.07,1.72,.32,2.52,.41,1.33,.51,3.88,.36,4.04l.57,.51c.5,1.23,.73,2.56,.67,3.88,.25,.09-2.71,9.5-2.96,9.42-.98,.48-.2,4.77,.62,4.71,.96-.6,5.75,2.68,4.14,3.82-.1,.82-.63,1.57-1.57,2.25Z"/>
      <path class="cls-14" d="M45.37,74.65v.22c-.02-.07-.02-.14,0-.21,0-.01,0-.03,0-.04,0,0,0,.02,0,.03Z"/>
      <path class="cls-14" d="M45.65,70.93s0,.05,0,.08v.03c-.01-.07-.01-.14,0-.21l.03,.11h-.03Z"/>
      <path class="cls-14" d="M49.44,72.66s0,.04,0,.05c0-.02,0-.05,0-.07h0v.02Z"/>
      <path class="cls-14" d="M49.89,77.59c0,.06-.03,.11-.04,.15h0c-.09-.1-.13-.25-.08-.38,.01,.09,.06,.17,.12,.23Z"/>
      <path class="cls-14" d="M52.98,76.38h0s-.02,.05-.03,.08c0-.04,0-.08,0-.12l.03,.05Z"/>
      <path class="cls-14" d="M45.37,74.65v.22c-.02-.07-.02-.14,0-.21,0-.01,0-.03,0-.04,0,0,0,.02,0,.03Z"/>
      <path class="cls-14" d="M45.65,70.93s0,.05,0,.08v.03c-.01-.07-.01-.14,0-.21l.03,.11h-.03Z"/>
      <path class="cls-14" d="M49.44,72.66s0,.04,0,.05c0-.02,0-.05,0-.07h0v.02Z"/>
      <path class="cls-14" d="M49.89,77.59c0,.06-.03,.11-.04,.15h0c-.09-.1-.13-.25-.08-.38,.01,.09,.06,.17,.12,.23Z"/>
      <path class="cls-14" d="M52.98,76.38h0s-.02,.05-.03,.08c0-.04,0-.08,0-.12l.03,.05Z"/>
      <path class="cls-14" d="M63.68,61.62l-.07,.08c-.3,.36-.61,.73-.94,1.1l.96-1.14s.03-.03,.05-.04Z"/>
      <path class="cls-14" d="M62.67,62.8l-.32,.35-.2,.22c-.77,.82-1.62,1.65-2.52,2.49-.41,.19-.7,.58-.78,1.02-.24,1-.68,1.93-1.29,2.75-.15,.22-.29,.45-.39,.7-.22,.55-.53,1.06-.91,1.51h0c-.08,.09-.15,.18-.21,.28-.04,.07-.07,.14-.1,.22l-.04,.12s-.02,.08-.02,.12c-.01,.04-.02,.08-.03,.12-.04,.25-.1,.5-.18,.74-.03,.1-.06,.19-.11,.29,0,.01,0,.03,0,.04-.04,.1-.08,.19-.12,.29l-.1,.21c-.04,.09-.08,.18-.13,.27-.2,.4-.43,.78-.67,1.15-.04,.06-.08,.12-.12,.18-.02,.03-.04,.06-.07,.09-.03,.06-.07,.11-.12,.16v.03c-.07,.08-.12,.15-.18,.21h0l-.08,.08h-.03c-.06,.04-.1,.05-.12,.03-.02,.03-.04,.07-.06,.1-.1,.14-.28,.2-.44,.15-.15-.04-.27-.15-.31-.29,0-.04,0-.08,0-.12-.11-.13-.14-.32-.06-.47,.19-.67,.51-1.29,.95-1.83l.17-.23c-.05-.31-.05-.62,0-.93,.05-.31,.12-.62,.21-.93,0-.03,0-.07,.03-.1,0-.04,.02-.08,.04-.12l-.06-.03h-.08c-.05,0-.1,0-.16,0h-.12c-.2,.02-.36,.18-.38,.38-.25,.77-.6,1.52-1.02,2.22-.39,1.28-.99,2.49-1.77,3.58l-.03,.05c-.11,.15-.32,.19-.49,.11-.14-.05-.27-.13-.37-.25-.09-.1-.13-.25-.08-.38h0c-.01-.05-.01-.11,0-.16,.13-.54,.61-1.95,.82-2.53l-.44-.23-.7-1.34c-.06,0-.09-.27-.07-.41h0s0-.05,0-.07c-.07-.05-.08-.47,0-.48l.51-1.17s0-.02,0-.03h0s0-.04,0-.05c-.02-.03-.04-.05-.07-.07h0l-.09-.05s-.02,0-.04,0h-.07c-.14-.04-.29-.06-.44-.04-.13,0-.24,.09-.29,.21-.01,.04-.03,.07-.04,.11-.21,.44-.51,.84-.87,1.17-.05,.05-.09,.11-.12,.17-.04,.09-.1,.2-.17,.32-.44,.79-1.16,1.81-1.17,1.88l-.03,.09h0c-.04,.15-.13,.28-.26,.38-.03,.03-.07,.06-.11,.08,0,.03-.01,.05-.03,.07h0s-.03,.05-.05,.08c-.03,.04-.06,.07-.1,.08-.07,.04-.15,.05-.22,.04-.1,0-.19-.03-.27-.08-.13-.09-.18-.25-.14-.39,0-.01,0-.03,0-.04-.02-.07-.02-.14,0-.21,0-.01,0-.03,0-.04h0c-.02-.07-.02-.14,0-.2-.02-.3,.06-.6,.23-.85,.04-.06,.36-1.17,.65-1.85-.26,.07-.52-.09-.59-.34-.04-.11-.04-.23-.02-.35-.01-.07-.01-.14,0-.21-.02-.09-.02-.17,0-.26,.03-.17,.11-.32,.23-.44l1.57-1.63,.32-.31,1.52-1.59,.31-.18c.09-.05,.18-.08,.28-.1,1.07-.21,2.11-.54,3.1-.99,.27,.06,3.4-3.23,5.47-5.86,1-1.27,1.75-2.39,1.81-2.91,.13-.51,.28-1.01,.44-1.51l.24-.09,.14-.05,.04,.2,1.54,7.39,.05,.28Z"/>
      <path class="cls-3" d="M71.18,52.25c-.05,.28-.17,.55-.35,.77-1.39,3.01-3.65,5.63-6.65,7.94-.08,.06-.14,.12-.2,.19h0l-.09,.12-.22,.28-.07,.08c-.3,.36-.61,.73-.94,1.1l-.32,.35c-.07,.07-.14,.15-.21,.22-.77,.82-1.62,1.65-2.52,2.49-.41,.19-.7,.58-.78,1.02-.24,1-.68,1.93-1.29,2.75-.15,.22-.29,.45-.39,.7-.22,.55-.53,1.06-.91,1.51h0c-.08,.09-.15,.18-.2,.29-.04,.07-.07,.14-.1,.22-.03,.07-.05,.15-.07,.23,0,.04,0,.08,0,.12-.04,.25-.1,.5-.18,.74-.03,.1-.07,.19-.11,.29v.04c-.04,.1-.08,.19-.12,.29-.03,.07-.06,.14-.1,.21-.04,.09-.08,.18-.13,.27-.2,.4-.43,.78-.67,1.16-.04,.06-.08,.12-.13,.18-.02,.03-.04,.06-.07,.09-.03,.05-.07,.11-.12,.16v.03l-.18,.21h0l-.09,.08h-.03c-.05,.04-.1,.05-.12,.03-.02,.04-.03,.07-.06,.1-.1,.14-.28,.19-.44,.15-.15-.04-.27-.14-.31-.29,0-.04,0-.09,0-.13,0-.07,.01-.13,.04-.19h0c.21-.69,.56-1.33,1.03-1.88l.17-.23c-.04-.31-.04-.63,.02-.94,0-.26,.03-.51,.06-.77,.04-.14,.08-.28,.12-.42-.03-.04-.07-.07-.12-.09h-.04l-.06-.03h-.08c-.05,0-.1,0-.16,0-.04,0-.08,0-.12,0-.2,.02-.36,.17-.38,.37-.25,.77-.59,1.52-1.01,2.22-.58,1.83-1.7,3.58-1.8,3.58,0,.02-.02,.04-.03,.05-.12,.15-.32,.19-.49,.11-.14-.05-.27-.13-.37-.25-.09-.1-.12-.25-.08-.38h0s.11,.04,.12,0c.19-.71,.72-2.24,.86-2.6,.03-.09,0-.19-.05-.26h0s-.03-.03-.05-.04h0l-.23-.12-.23-.11-.66-1.33s-.06-.07-.07-.16h0v-.07c-.02-.08-.02-.15,0-.23,0,0,0-.03,.03-.03l.51-1.19c.03-.07,.04-.15,.04-.23v-.04s0-.05,0-.08c0-.02,0-.04,0-.07v-.04h0l-.03-.04s-.04-.05-.07-.07h0s-.06-.04-.09-.05c-.01,0-.02,0-.04,0h-.03c-.14-.04-.29-.05-.44-.04-.13,0-.25,.09-.3,.21-.01,.04-.03,.07-.04,.11-.2,.45-.49,.86-.85,1.2-.05,.05-.09,.11-.12,.17-.04,.09-.1,.2-.17,.32-.44,.78-1.16,1.81-1.17,1.88,0,.03,0,.06,0,.09h0c-.04,.15-.13,.29-.26,.38-.04,.03-.07,.05-.11,.08,0,.02,0,.05,0,.07h0s-.03,.05-.04,.08c-.03,.04-.06,.07-.11,.08-.06,.04-.14,.05-.21,.04h0c-.09,0-.18-.03-.26-.09-.06-.05-.11-.11-.14-.19-.02-.07-.02-.14,0-.21v-.04h0c0-.07,0-.14,0-.21,.02-.21,.09-.42,.22-.59,.04-.06,.41-1.35,.72-2.02l.07-.14,.06-.11s.01-.07-.01-.09c-.02-.01-.04-.02-.06,0h0l-.12,.02c-.07,0-.14,0-.21,0-.18-.03-.33-.16-.38-.34,0-.03,0-.07,0-.1-.01-.07-.01-.14,0-.21v-.06s0-.05,0-.08c.04-.14,.12-.26,.22-.37l1.59-1.66,.32-.31,1.54-1.61,.31-.19c.09-.05,.19-.08,.28-.1,1.02-.29,2.01-.68,2.94-1.18,.28,.06,3.45-3.28,5.54-5.95,1.01-1.29,1.77-2.42,1.84-2.95,.14-.54,.3-1.08,.47-1.59l.12-.34,.04-.12h0c.03-.09,.06-.18,.09-.27,.39-1.1,.88-2.16,1.46-3.18,.59-1.04,.51-2.33-.21-3.28-.43-.55-.89-1.08-1.38-1.57-.15-.15-.31-.28-.44-.42-.74-.63-1.32-1.42-1.71-2.3l-.05-.11h.03l8.53-2.88c.22-.08,.41-.24,.53-.44v-.04c.03-.05,.05-.1,.07-.16,.01-.04,.02-.08,.03-.12,0-.02,0-.04,0-.06,0-.04,0-.08,0-.12v-.13h0l.1,.22c1.25,2.81,2.22,5.44,2.45,7.6,.01,.17,.04,.34,.08,.51l.56,2.74c.14,.59,.14,1.2,.02,1.79Z"/>
      <path class="cls-13" d="M70.82,52.32c-.05,.28-.16,.54-.34,.76-1.37,2.96-3.61,5.55-6.54,7.83-.07,.06-.14,.12-.2,.19h0l-.09,.12-.29,.36c-.23,.29-.48,.58-.74,.89s-.44,.52-.71,.78c-.76,.81-1.59,1.63-2.49,2.45-.4,.19-.69,.57-.76,1.01-.23,.98-.67,1.91-1.28,2.71-.15,.21-.28,.44-.39,.69-.21,.54-.51,1.04-.89,1.48h0c-.08,.09-.15,.18-.2,.28-.04,.07-.07,.14-.1,.21l-.04,.11s0,.08-.03,.12c0,.04,0,.08,0,.12-.04,.25-.1,.49-.18,.72-.03,.1-.07,.19-.11,.29v.04c-.03,.1-.07,.19-.12,.28-.03,.07-.06,.14-.1,.21-.04,.09-.08,.18-.13,.27-.2,.39-.42,.77-.66,1.14-.04,.06-.08,.12-.12,.18-.02,.03-.04,.06-.07,.09-.03,.05-.07,.11-.11,.16v.03l-.17,.21s-.08,.07-.11,.09-.12,.08-.14,.05c-.08,.21-.31,.31-.52,.24-.06-.02-.11-.04-.16-.08l-.04-.05c-.12-.13-.15-.32-.06-.47,.18-.66,.48-1.28,.91-1.82l.17-.23c-.05-.31-.05-.62,0-.93,.05-.31,.12-.62,.21-.93,0-.04,0-.07,.03-.11s0-.08,.04-.11l.03-.1c-.08-.08-.18-.14-.3-.16-.05,0-.1,0-.15,0-.24-.03-.46,.14-.49,.38-.25,.77-.59,1.52-1,2.22-.57,1.8-1.67,3.54-1.77,3.54-.1,.21-.35,.29-.56,.18,0,0-.01,0-.02-.01-.07-.03-.13-.07-.18-.12-.07-.06-.11-.14-.12-.23h0c-.01-.05-.01-.11,0-.16,.13-.54,.61-1.94,.82-2.53l.07-.18h0c.03-.12-.02-.24-.13-.29l-.31-.16-.16-.07-.64-1.3h0c-.07-.05-.08-.47,0-.48l.54-1.27s0-.02,0-.03h0c.02-.07,.02-.15,0-.22h0v-.08s-.01-.05-.03-.07c-.02-.04-.04-.08-.07-.11-.02-.03-.04-.05-.07-.07h0s-.06-.04-.09-.05c-.01,0-.02,0-.04,0h-.03c-.14-.04-.29-.06-.44-.04-.13,0-.25,.09-.29,.21-.01,.04-.03,.07-.04,.11-.19,.45-.48,.85-.84,1.18-.05,.05-.09,.11-.12,.17-.04,.09-.1,.2-.16,.31-.44,.78-1.15,1.77-1.16,1.86,0,.03-.01,.06-.02,.09h0c-.04,.15-.13,.28-.25,.37-.03,.03-.07,.05-.11,.08,0,.02-.01,.05-.03,.07h0c-.03,.07-.08,.12-.15,.16-.07,.03-.14,.05-.21,.04-.03,0-.07,0-.1,0-.06-.01-.11-.04-.16-.08-.05-.04-.09-.09-.12-.15v-.03h0c-.02-.07-.02-.14,0-.2-.02-.3,.06-.6,.23-.85,.04-.06,.36-1.17,.65-1.85l.03-.08,.03-.06,.07-.13h0s.04-.08,.06-.11c.02-.03,.01-.07-.01-.09-.02-.01-.04-.02-.06,0-.14,.04-.28,.04-.42,0-.14-.05-.25-.16-.29-.31h0s-.02-.07-.03-.1c-.02-.09-.02-.17,0-.26,.03-.17,.11-.32,.23-.44l1.57-1.63,.31-.31,1.52-1.59,.31-.18c.09-.05,.18-.08,.27-.1,1.07-.21,2.11-.54,3.1-.98,.27,.06,3.4-3.23,5.47-5.86,1-1.27,1.77-2.39,1.81-2.9,.14-.51,.28-1.01,.44-1.51,.05-.18,.12-.35,.18-.53l.07-.19s.02-.06,.03-.09c.39-1.08,.87-2.13,1.44-3.14,.58-1.03,.5-2.3-.21-3.24-.42-.54-.87-1.06-1.36-1.55-.14-.14-.29-.28-.44-.41-.76-.65-1.35-1.46-1.73-2.38l-.05-.12h.11l.13-.04h.03l8.53-2.88c.22-.08,.41-.24,.53-.44l.04,.09c1.18,2.66,2.08,5.18,2.3,7.24,0,.17,.04,.33,.08,.51l.55,2.7c.09,.56,.05,1.13-.1,1.67Z"/>
      <text class="cls-1" transform="translate(26.76 204.13)"><tspan class="cls-8" x="0" y="0">M</tspan><tspan class="cls-9" x="7.1" y="0">idnig</tspan><tspan class="cls-12" x="27.88" y="0">h</tspan><tspan class="cls-11" x="32.94" y="0">t Exp</tspan><tspan class="cls-10" x="53.06" y="0">r</tspan><tspan class="cls-11" x="56.45" y="0">ess</tspan></text>
      <path class="cls-5" d="M47.79,181.37s0,0,0,0"/>
      <g>
        <path class="cls-7" d="M17.74,173.29c-3.5,8.07-7.01,16.13-10.51,24.2"/>
        <path class="cls-7" d="M27.53,183.94c-1.11,.02-2.18,.03-3.22,.03-.93,0-1.84,0-2.71,0-3.26,0-6.1-.07-8.43-.14h-.06c-3.96-.12-12.71-.39-12.73-1.12,0-.15,.38-.28,.68-.37,6.81-2.12,13.17-1.21,13.17-1.21,.03,0,.07,0,.1,.02,3.04,.44,4.82,1.09,6.37,2.14,.36,.24,.65,.47,.9,.69,.67,.58,.94,1.03,1.08,1.28,.25,.46,.4,.94,.48,1.42,.26,1.57-.27,3.08-.55,3.92-.74,2.16-2.11,3.54-2.94,4.24,1.16-2.72,2.33-5.44,3.5-8.16,.39-.9,.77-1.8,1.16-2.7,1.91-4.44,3.81-8.88,5.71-13.32"/>
        <path class="cls-7" d="M33.81,174.59c-1.3,4.37-2.37,9.04-3.09,14-.07,.5-.14,1-.21,1.49"/>
        <path class="cls-7" d="M33.97,180.66c-.89,3.28-1.01,4.04-.93,4.07,.09,.03,.41-.9,1.24-2.21,.14-.22,1.18-1.87,1.44-1.75,.33,.15-.71,2.94-.46,3.04,.21,.08,1.01-1.96,1.7-1.85,.49,.08,.47,1.19,1.18,1.44,.46,.17,.99-.12,1.34-.36"/>
        <path class="cls-7" d="M42.33,180.71c-.05-.22-.13-.41-.28-.46-.68-.25-2.7,2.21-2.14,3.5,.05,.12,.12,.27,.26,.31,.72,.22,2.13-2.74,2.42-2.6,.18,.09-.4,1.25-.03,1.6,.33,.3,1.23-.16,1.93-.59"/>
        <path class="cls-7" d="M45.68,180.61c-.71,3.23-.88,4.06-.88,4.07,.01,0,.25-2.9,1.83-3.55,.03-.01,.75-.3,1.06,0,.49,.49-.67,1.97-.08,2.65,.26,.29,.68,.26,.75,.26,.6-.05,1.16-.72,1.29-1.7"/>
        <path class="cls-7" d="M55.42,182.08c.16-1.24,.57-3.22,1.72-5.35,.66-1.24,1.91-3.57,3.09-3.36,1.09,.19,1.53,2.55,1.65,3.16,1.32,7.05-4.4,15.28-5.08,14.96-.93-.45,5.87-18.11,7.55-17.71,1.32,.31-1.16,14.42-.75,14.48,.2,.03,.58-3.33,2.13-7.34,1.38-3.57,3.47-7.99,4.25-7.75,.62,.19,.32,3.25-.07,5.22-.62,3.19-2.19,7.21-2.61,10.57-.07,.58-.16,1.54,.34,1.85,.42,.27,1.08-.04,1.37-.21"/>
        <path class="cls-7" d="M72.42,174.84c-.69,3.23-1.37,6.45-2.06,9.68"/>
        <path class="cls-7" d="M76.33,174.48c-.75,3.38-1.51,6.76-2.26,10.14,.25-.71,.7-1.71,1.54-2.68,.88-1.01,1.01-1.05,1.08-1.03,.56,.18-.19,3,.41,3.24,.25,.1,.77-.25,1.9-1.96"/>
        <path class="cls-7" d="M83.74,182.51c-.56,.43-1.33,.92-1.7,.67-.44-.3-.11-1.49-.31-1.54-.26-.07-.66,2.02-1.65,2.16-.32,.05-.66-.12-.82-.36-.58-.86,.86-3.16,1.85-3.04,.21,.03,.38,.16,.51,.31"/>
        <path class="cls-7" d="M86.11,174.69c-1.69,8.46-2.77,13.51-3.04,14.1"/>
        <path class="cls-7" d="M86.24,182.56s.79,.08,1.21-.46c.34-.44,.34-1.13,.1-1.26-.28-.15-.91,.46-1.24,.9-.76,1.01-1.03,2.57-.57,2.86,.6,.37,2.39-1.51,2.93-2.11"/>
        <path class="cls-7" d="M91.2,174.59c-2.04,10.06-2.94,13.75-3.27,14.36"/>
        <path class="cls-7" d="M91.26,182.59c.51,.05,.98-.18,1.18-.57,.18-.33,.19-.84-.05-1-.3-.21-.93,.17-1.26,.49-.96,.92-.98,2.85-.39,3.14,.52,.26,1.65-.71,2.78-2.24"/>
        <path class="cls-7" d="M30.52,183.17c-.18,1.01-.93,1.69-1.7,1.7-.45,0-.95-.21-1.18-.62-.6-1.05,.88-2.97,1.54-2.83,.31,.07,.51,.58,.46,.98-.09,.79-1.22,1.52-2.88,1.54"/>
        <path class="cls-7" d="M72.64,184.58c-.88-.45-1.58-.94-2-1.41"/>
      </g>
      <path class="cls-6" d="M71.01,181.45c.2-.1,.43-.21,.68-.32,.63-.29,1.19-.43,1.57-.5"/>
    </g>
  </g>
</svg>