<?xml version="1.0" encoding="UTF-8"?>
<svg id="Layer_2" data-name="Layer 2" xmlns="http://www.w3.org/2000/svg" viewBox="0 0 102.51 208.13">
  <defs>
    <style>
      .cls-1 {
        fill: #fff;
      }

      .cls-2 {
        fill: #a7a9ac;
      }

      .cls-3 {
        letter-spacing: .09em;
      }

      .cls-4 {
        letter-spacing: .1em;
      }

      .cls-5 {
        letter-spacing: .1em;
      }

      .cls-6 {
        stroke: #414042;
      }

      .cls-6, .cls-7 {
        fill: none;
        stroke-linecap: round;
        stroke-linejoin: round;
        stroke-width: .65px;
      }

      .cls-8 {
        letter-spacing: .1em;
      }

      .cls-9 {
        fill: #808285;
      }

      .cls-10 {
        font-family: MyriadConceptRoman-Semibold, 'Myriad Variable Concept';
        font-size: 6px;
        font-variation-settings: 'wght' 600, 'wdth' 100;
        font-weight: 600;
      }

      .cls-10, .cls-11 {
        fill: #92c1db;
      }

      .cls-7 {
        stroke: #231f20;
      }

      .cls-12 {
        fill: #d1d3d4;
      }

      .cls-13 {
        letter-spacing: .1em;
      }

      .cls-14 {
        letter-spacing: .11em;
      }

      .cls-15 {
        letter-spacing: .12em;
      }

      .cls-16 {
        letter-spacing: .1em;
      }

      .cls-17 {
        fill: #58595b;
      }
    </style>
  </defs>
  <g id="Layer_1-2" data-name="Layer 1">
    <g>
      <circle class="cls-17" cx="26.82" cy="205.4" r=".24"/>
      <circle class="cls-11" cx="24.48" cy="160.95" r="10.78"/>
      <path class="cls-2" d="M78.38,150.99c1.12,2.72,1.59,6.11,1.39,10.17-1.64,4.31-4.01,3.89-6.76,.79-2.07-2.63-3.5-5.3-3.23-8.05-.27-3.63-1.46-6.28-2.79-8.75-1.81-1.95-2.32-3.71-2.07-5.35,.35-1.95,1.24-3.06,2.66-3.31,.35-1.47,.4-3.01,.13-4.51-1.35-2.19-1.47-3.98-.72-5.51l.18-.27c-.94-1.56-1.42-3.02-.94-4.23,.03-.31-.08-.61-.26-.86-1.12-1.73-1.63-4.18-1.99-6.77-.64-2.81-1.67-5.53-3.05-8.09l-1.15-2.57-.1-.07c-.65-.38-1.12-1-1.32-1.73l-1.9-6.78-.35-1.5c-.09-.05-.18-.08-.29-.08-.3,0-.56,.23-.59,.55l-.14,1.75-.74,4.41c-.01,.05-.04,.12-.08,.16-.23,.21-.42,.47-.55,.76-.23,.63-.42,1.28-.52,1.94-.04,.25-.05,.51-.03,.76,.22,2.37,.47,4.81,.23,6.13-.08,.42-.09,.83-.03,1.25,.51,1.97,.09,4.1-.9,6.34,.04,.64,.03,1.26-.05,1.9,1.28,2.6,1.97,5.46,2.01,8.35,0,1.41-.16,2.79-.47,4.15l.25,9.31c.01,.55-.05,1.11-.18,1.64l-.26,1.05c-.26,1.71-.47,3.41,.46,4.83,.49,.9,.53,1.98,.13,2.92-.07,.48,.08,.96,.4,1.33l.78,3.48c.26,2.03,.66,3.84,1.52,5.04,.86,1.28,1.33,2.57,1,3.85l-.38,1.48c.03,.07,.04,.14,.03,.22l-.09,.55c-.03,.12-.1,.22-.22,.27l-.17,.09c-.16,.08-.35,.03-.46-.12l-.34-.47s-.05-.08-.07-.12l-4.79,1.34v.07c.03,.12-.03,.25-.1,.34l-.16,.13c-.13,.12-.31,.13-.46,.03l-.47-.34c-.13-.09-.18-.25-.16-.39l-1.71-.47c-1.39-1.86-1.67-3.95-.78-6.3,.25-1.25-.05-2.55-.81-3.58-.31,.66-.94,.89-1.9,.66,.2-1.24,.89-2.34,1.9-3.09,.2-.78,.18-1.6-.04-2.38-.36-1.11-.48-2.27-.33-3.41,.04-1.82-.16-3.63-.59-5.39l-3.35-13.07c-1.51-3.59-1.28-8.03-.35-12.83-.21-1.08,.3-4.56,.56-5.08-1.25-2.54-3.87-11.03-4.13-13.87-.03-.08-.09-.14-.18-.16l-.59-.1c-1.59-.76-3.33-26.1-1.25-28.28,.34-.35,.13-.96-.09-1.39l-.39-.74-1.46-5.57-1.33-4.51-.59-3.58c-.03-.53-.27-1.04-.66-1.39l-2.55-2.06-1.6-2.92c-.18-.34-1.08-.47-1.09-.09,.13,2.25,0,4.51-.39,6.72l-.56,.21c.21,3.42-.85,7.85-2.36,11.64l-1.29,6.55c-.18,1.12-.26,2.25-.22,3.4,.13,.55,.23,.99,.31,1.37,1,1.32,1.69,2.85,2.03,4.47l.13,1.55,1.51,1.2c.61,.59,.3,.87-.18,1.09l-1.02-.39c.2,.39,0,.66-.53,.83l2.62,1.51c.29,.53,.14,.82-.53,.74l-4.9-1.8c.42,.33,.6,.87,.48,1.39,.79,.16,1.51,.57,2.03,1.19,.82,.09,1.6,.43,2.21,.98,.4,.57,.22,.89-.22,1.11l-.53-.05c0,.21-.16,.3-.43,.27-.78-.12-1.51-.4-2.15-.86l-2.03-1.07c-.29-.22-.51-.51-.66-.83-.36-.99-.89-1.91-1.55-2.75-.4-.51-.63-1.15-.61-1.81-.2-1.76-.2-3.54,0-5.3,.21-.78,.21-1.61,0-2.4-.2-.87-.2-1.77,0-2.66,.27-2.45,.38-4.92,.33-7.38-.01-.46-.09-.91-.23-1.34-.73-2.4-.89-6.88-1.03-11.42l-.46-.89,.7-5.57,.9-4.25c-1.91-4.64-.46-9.39,2.92-14.23l1.93-1.2,3.45-2.19,2.32-1.78c-.2-.66-.49-1.3-.86-1.89l-1.97-2.76c-1.22-1.33-1.97-3.05-2.07-4.86,.04-.42-.01-.83-.14-1.24-.39-.59-.4-1.48-.31-2.47-.42-1.09-.46-2.9-.35-5,.61-2.49,2.32-4.54,5.13-6.24,2.33-.56,4.73-.65,7.08-.26,1.52,.57,2.8,1.65,3.63,3.05,1,1.9,1.45,4.05,1.28,6.19,1.16,.22,1.13,1.09,1.2,2.46,.07,1.17-1.2,3.26-1.2,3.26-.34,.12-.23,3.13,1.05,4.31,4.44,.34,9.75,1.56,15.56,3.24,5.08,1.58,8.59,6.6,11.73,12.44,.08,.14,.14,.29,.21,.43l2.23,5.52,.03,.09v.36s-.01,.08-.03,.12c-.01,.05-.04,.1-.08,.16v.04c-.12,.22-.31,.39-.55,.47l-8.93,3.02h-.04l-.13,.04h-.12c-.35,.08-.72-.04-.96-.3l-.42-.47-.25-.09h-.03c-.47-.31-.92-.66-.92-.66-.2-.14-.47-.1-.61,.09-.09,.1-.12,.25-.08,.38l.35,.99c.08,.23,.14,.47,.2,.69l.69,2.66c.14,.61,.35,1.2,.61,1.76l2.03,4.43c.1,.23,.27,.46,.46,.63l1.3,1.2,.08,.17v.04c-.03,.07-.05,.14-.07,.21-.07,.18-.13,.36-.2,.55-.17,.51-.33,1.04-.47,1.58-.07,.53-.85,1.72-1.89,3.05-2.17,2.75-5.44,6.2-5.73,6.13-1.04,.47-2.14,.82-3.26,1.04-.1,.01-.2,.05-.29,.09l-.33,.2-1.59,1.67-.34,.33-1.64,1.71c-.13,.13-.21,.29-.25,.47-.01,.09-.01,.18,0,.27-.01,.07-.01,.14,0,.22-.03,.12-.01,.25,.03,.36,.08,.26,.35,.42,.61,.35-.3,.72-.64,1.86-.68,1.94-.17,.26-.26,.57-.25,.89-.01,.07-.01,.14,0,.21v.05c-.01,.07-.01,.14,0,.22v.04c-.05,.16,0,.34,.14,.43,.08,.05,.17,.09,.27,.09,.08,.01,.16,0,.23-.04,.04-.03,.08-.05,.1-.09,.03-.03,.04-.05,.05-.08,.01-.03,.03-.05,.03-.08,.04-.01,.08-.04,.1-.08,.14-.09,.23-.23,.27-.39l.03-.1c0-.08,.78-1.15,1.24-1.97,.07-.12,.13-.23,.17-.34,.04-.07,.08-.12,.13-.17,.38-.36,.68-.78,.89-1.26,.03-.04,.04-.08,.05-.12,.05-.12,.17-.21,.3-.22,.16-.01,.31,0,.47,.05h.07s.01-.01,.01-.01c.01,0,.03,.01,.03,.01l.09,.05c.05,.03,.08,.05,.12,.09,.01,.01,.01,.03,.03,.05v.03l-.53,1.24c-.08,0-.07,.46,0,.49v.08c0,.14,0,.43,.08,.43l.69,1.39,.47,.23c-.23,.6-.73,2.08-.87,2.64-.01,.07-.01,.12,0,.17-.01,.04-.01,.08-.01,.13,0,.09,.03,.2,.1,.27,.1,.12,.23,.21,.39,.26,.17,.09,.39,.04,.51-.12l.03-.05c.82-1.15,1.45-2.41,1.85-3.75,.46-.74,.81-1.51,1.07-2.33,.03-.21,.2-.38,.4-.39h.12c.07-.01,.12-.01,.17,0h.09l.07,.04s-.03,.08-.04,.12c0,.04,0,.07-.03,.1-.09,.31-.17,.64-.22,.96s-.05,.66,0,.98l-.18,.27c-.48,.57-.85,1.22-1.07,1.94-.08,.17-.05,.36,.07,.49v.13c.05,.16,.18,.27,.34,.31,.17,.05,.35-.01,.46-.16,.03-.04,.05-.07,.07-.1,0,.03,.07,0,.13-.03h.03l.09-.09c.05-.07,.12-.13,.18-.22v-.03c.05-.05,.09-.1,.12-.17,.03-.03,.05-.05,.08-.09,.04-.07,.09-.13,.13-.2,.26-.38,.49-.78,.7-1.2,.05-.1,.09-.2,.14-.29l.09-.22c.05-.1,.1-.21,.13-.3v-.05c.04-.09,.08-.2,.12-.3,.08-.25,.14-.51,.18-.77,.01-.04,.01-.09,.03-.13,.01-.04,.01-.08,.03-.12l.04-.12c.04-.08,.07-.16,.12-.23,.05-.1,.13-.21,.21-.3,.4-.47,.73-1,.96-1.58,.1-.26,.25-.49,.4-.73,.65-.86,1.11-1.84,1.35-2.88,.08-.47,.39-.87,.82-1.08,.92-.87,1.85-1.75,2.63-2.6l.22-.23,.34-.36c.35-.39,.66-.77,.98-1.16l.08-.08c.1-.08,.25-.05,.33,.05,.01,.03,.03,.05,.03,.08l.1,.35,1.86,4.47c1.46,2.04,2.55,4.28,2.79,6.78,0,.17,.07,.33,.09,.46,.49,3.8,1.08,8.19,1.69,12.88,.08,.57,.22,1.15,.42,1.69,.85,2.2,1.45,4.49,1.78,6.82-.01,.04-.01,.09,0,.13l.33,4.04c.01,.18-.03,.38-.1,.55l-.2,.46c.4,4.99,.55,10,.42,15-.04,.9,.08,1.8,.34,2.64,.43,1.39,.53,4.06,.38,4.23l.6,.53c.52,1.29,.77,2.68,.7,4.06,.26,.09-2.84,9.95-3.1,9.87-1.03,.51-.21,5,.65,4.94,1-.63,6.03,2.81,4.34,4-.1,.86-.66,1.64-1.64,2.36Z"/>
      <path class="cls-12" d="M47.46,78.21v.23c-.02-.07-.02-.15,0-.22,0-.02,0-.03,0-.05,0,0,0,.02,0,.03Z"/>
      <path class="cls-12" d="M47.76,74.31s0,.05,0,.08v.03c-.01-.07-.01-.15,0-.22l.03,.11h-.03Z"/>
      <path class="cls-12" d="M51.73,76.13s0,.04,0,.06c0-.02,0-.05,0-.07h0v.02Z"/>
      <path class="cls-12" d="M52.2,81.29c0,.06-.03,.11-.04,.16h0c-.1-.11-.13-.26-.09-.4,.01,.09,.06,.18,.13,.24Z"/>
      <path class="cls-12" d="M55.43,80.03h0s-.02,.05-.03,.08c0-.04,0-.09,0-.13l.03,.05Z"/>
      <path class="cls-12" d="M47.46,78.21v.23c-.02-.07-.02-.15,0-.22,0-.02,0-.03,0-.05,0,0,0,.02,0,.03Z"/>
      <path class="cls-12" d="M47.76,74.31s0,.05,0,.08v.03c-.01-.07-.01-.15,0-.22l.03,.11h-.03Z"/>
      <path class="cls-12" d="M51.73,76.13s0,.04,0,.06c0-.02,0-.05,0-.07h0v.02Z"/>
      <path class="cls-12" d="M52.2,81.29c0,.06-.03,.11-.04,.16h0c-.1-.11-.13-.26-.09-.4,.01,.09,.06,.18,.13,.24Z"/>
      <path class="cls-12" d="M55.43,80.03h0s-.02,.05-.03,.08c0-.04,0-.09,0-.13l.03,.05Z"/>
      <path class="cls-12" d="M66.65,64.57l-.07,.08c-.31,.38-.64,.77-.98,1.15l1.01-1.19s.03-.03,.05-.04Z"/>
      <path class="cls-12" d="M65.59,65.8l-.34,.37-.21,.23c-.81,.86-1.7,1.73-2.64,2.61-.43,.2-.73,.6-.81,1.07-.25,1.04-.71,2.02-1.36,2.88-.16,.23-.3,.47-.41,.73-.23,.58-.55,1.11-.96,1.58h0c-.08,.09-.16,.19-.22,.3-.04,.07-.08,.15-.11,.23l-.04,.12s-.02,.08-.02,.13c-.01,.04-.02,.08-.03,.12-.04,.26-.1,.52-.19,.77-.03,.1-.07,.2-.11,.31,0,.01,0,.03,0,.04-.04,.1-.08,.2-.13,.3l-.1,.22c-.04,.09-.08,.19-.14,.28-.21,.42-.45,.82-.71,1.21-.04,.07-.08,.13-.13,.19-.02,.03-.04,.07-.07,.1-.04,.06-.08,.11-.12,.16v.03c-.07,.09-.13,.16-.19,.22h0l-.09,.08h-.03c-.06,.04-.1,.06-.13,.03-.02,.04-.04,.07-.06,.1-.11,.14-.29,.21-.46,.16-.16-.04-.28-.15-.33-.31,0-.04,0-.09,0-.13-.12-.14-.14-.33-.06-.5,.2-.7,.54-1.35,1-1.92l.18-.24c-.05-.32-.05-.65,0-.97,.05-.33,.13-.65,.22-.97,0-.03,0-.07,.03-.11,.01-.04,.02-.08,.04-.12l-.06-.03h-.09c-.05,0-.11,0-.16,0h-.13c-.21,.02-.38,.18-.39,.39-.27,.81-.62,1.59-1.07,2.32-.41,1.34-1.04,2.61-1.86,3.76l-.03,.06c-.12,.16-.34,.2-.51,.11-.15-.05-.28-.14-.39-.26-.1-.11-.13-.26-.09-.4h0c-.01-.05-.01-.11,0-.17,.14-.57,.64-2.04,.86-2.65l-.46-.24-.73-1.41c-.06,0-.09-.28-.07-.43h0s0-.05,0-.07c-.07-.06-.09-.5,0-.5l.53-1.23s0-.02,0-.03h0s0-.04,0-.06c-.02-.03-.04-.05-.07-.07h0l-.09-.05s-.03,0-.04,0h-.07c-.15-.05-.31-.06-.46-.05-.14,0-.26,.1-.31,.22-.01,.04-.03,.08-.05,.12-.22,.47-.53,.88-.91,1.23-.05,.05-.1,.11-.13,.18-.05,.1-.11,.21-.18,.33-.46,.83-1.22,1.89-1.23,1.97l-.03,.1h0c-.04,.16-.14,.3-.27,.39-.03,.03-.07,.06-.11,.08,0,.03-.01,.05-.03,.07h0s-.03,.06-.05,.08c-.03,.04-.06,.07-.11,.09-.07,.04-.15,.05-.23,.04-.1,0-.2-.03-.28-.09-.13-.09-.19-.26-.14-.41,0-.01,0-.03,0-.04-.02-.07-.02-.15,0-.22,0-.02,0-.03,0-.05h0c-.02-.07-.02-.14,0-.21-.02-.31,.07-.63,.24-.89,.04-.06,.38-1.23,.68-1.94-.27,.07-.54-.09-.62-.36-.04-.12-.05-.24-.02-.36-.01-.07-.01-.15,0-.22-.02-.09-.02-.18,0-.27,.03-.18,.12-.34,.24-.46l1.64-1.71,.33-.32,1.59-1.66,.32-.19c.09-.05,.19-.08,.29-.1,1.12-.22,2.21-.57,3.25-1.04,.29,.06,3.56-3.38,5.73-6.14,1.04-1.33,1.83-2.51,1.9-3.05,.14-.54,.29-1.06,.46-1.58l.26-.09,.14-.06,.04,.21,1.61,7.75,.05,.3Z"/>
      <path class="cls-1" d="M74.51,54.74c-.05,.29-.18,.57-.36,.81-1.45,3.15-3.83,5.9-6.96,8.32-.08,.06-.15,.13-.21,.2h0l-.1,.13-.23,.29-.07,.09c-.31,.38-.64,.76-.98,1.15l-.34,.37c-.07,.07-.14,.15-.22,.23-.8,.86-1.69,1.73-2.64,2.61-.43,.2-.73,.6-.81,1.07-.25,1.04-.71,2.03-1.36,2.88-.16,.23-.3,.47-.41,.73-.23,.58-.55,1.11-.96,1.58h0c-.08,.09-.16,.19-.21,.3-.04,.07-.08,.15-.11,.23-.03,.08-.06,.16-.07,.24,0,.04,0,.08,0,.13-.04,.26-.1,.52-.19,.77-.03,.1-.07,.2-.11,.3v.05c-.04,.1-.08,.2-.13,.3-.03,.07-.06,.14-.1,.22-.04,.1-.09,.19-.13,.28-.21,.42-.45,.82-.71,1.21-.04,.06-.09,.13-.13,.19-.02,.03-.04,.07-.07,.1-.04,.06-.08,.11-.12,.16v.03l-.19,.22h0l-.09,.09h-.03c-.06,.04-.1,.06-.13,.03-.02,.04-.04,.07-.06,.11-.11,.14-.29,.2-.46,.15-.15-.04-.28-.15-.33-.3,0-.04,0-.09,0-.13,0-.07,.02-.14,.05-.2h0c.22-.72,.59-1.39,1.08-1.97l.18-.25c-.04-.33-.04-.66,.02-.98,0-.27,.03-.54,.06-.8,.04-.14,.08-.29,.13-.44-.04-.04-.08-.07-.13-.1h-.04l-.06-.03h-.08c-.05,0-.11,0-.16,0-.04,0-.09,0-.13,0-.21,.02-.37,.18-.39,.39-.26,.81-.62,1.59-1.06,2.32-.6,1.92-1.78,3.75-1.88,3.76,0,.02-.02,.04-.03,.06-.12,.16-.34,.2-.51,.11-.15-.05-.28-.14-.39-.26-.1-.11-.13-.26-.08-.4h0s.11,.04,.13,0c.2-.75,.76-2.34,.9-2.72,.03-.09,0-.2-.06-.27h0s-.03-.03-.06-.04h0l-.25-.12-.24-.12-.69-1.39s-.06-.07-.07-.17h0v-.07c-.02-.08-.02-.16,0-.24,0,0,0-.03,.03-.03l.53-1.25c.03-.08,.05-.16,.04-.25v-.05s0-.06,0-.08c0-.02,0-.05,0-.07v-.05h0l-.03-.04s-.05-.05-.07-.07h0s-.06-.04-.09-.05c-.01,0-.03,0-.04,0h-.03c-.15-.04-.31-.06-.46-.04-.14,0-.26,.09-.31,.22-.01,.04-.03,.08-.05,.12-.21,.47-.51,.9-.89,1.26-.05,.05-.1,.11-.13,.18-.05,.1-.11,.21-.18,.33-.46,.82-1.22,1.89-1.23,1.97,0,.03,0,.07,0,.1h0c-.04,.16-.14,.3-.27,.4-.04,.03-.08,.06-.12,.08,0,.02,0,.05,0,.07h0s-.03,.06-.05,.08c-.03,.04-.07,.07-.11,.09-.07,.04-.15,.05-.22,.04h0c-.1,0-.19-.03-.27-.09-.07-.05-.12-.12-.14-.19-.02-.07-.02-.15,0-.22v-.05h0c0-.07,0-.15,0-.22,.02-.22,.1-.44,.23-.62,.04-.06,.43-1.42,.75-2.11l.07-.14,.06-.11s.02-.07-.02-.1c-.02-.01-.04-.02-.06,0h0l-.13,.02c-.07,0-.15,0-.22,0-.19-.03-.35-.17-.4-.36,0-.03,0-.07,0-.1-.01-.07-.01-.15,0-.22v-.06s0-.05,0-.08c.04-.15,.12-.28,.23-.39l1.67-1.74,.34-.33,1.62-1.68,.33-.19c.09-.05,.19-.08,.3-.11,1.07-.3,2.1-.72,3.08-1.24,.29,.06,3.62-3.43,5.81-6.23,1.06-1.35,1.86-2.54,1.93-3.09,.15-.57,.31-1.13,.49-1.67l.13-.36,.04-.13h0c.03-.09,.06-.19,.1-.28,.41-1.15,.92-2.27,1.53-3.33,.62-1.09,.53-2.44-.22-3.44-.45-.58-.93-1.13-1.45-1.64-.15-.16-.32-.3-.46-.44-.77-.66-1.38-1.48-1.79-2.41l-.06-.12h.03l8.94-3.02c.24-.08,.43-.25,.55-.46v-.04c.03-.05,.06-.11,.07-.17,.01-.04,.02-.08,.03-.12,0-.02,0-.04,0-.06,0-.04,0-.09,0-.13v-.13h0l.11,.23c1.31,2.95,2.32,5.7,2.57,7.96,.02,.18,.04,.36,.08,.53l.58,2.87c.14,.62,.15,1.26,.02,1.88Z"/>
      <path class="cls-9" d="M74.13,54.81c-.05,.29-.17,.56-.35,.79-1.43,3.11-3.78,5.81-6.86,8.21-.08,.06-.15,.12-.21,.2h0l-.1,.13-.3,.38c-.25,.3-.51,.61-.78,.93s-.46,.54-.74,.81c-.79,.85-1.67,1.71-2.6,2.57-.42,.2-.72,.6-.8,1.06-.25,1.03-.7,2-1.34,2.84-.16,.22-.29,.47-.4,.72-.22,.57-.53,1.09-.93,1.56h0c-.08,.09-.15,.19-.21,.3-.04,.07-.08,.15-.1,.22l-.04,.12s0,.08-.03,.12c0,.04,0,.08,0,.13-.04,.26-.1,.51-.19,.76-.03,.1-.07,.2-.11,.3v.04c-.04,.1-.08,.2-.13,.3-.03,.07-.06,.14-.1,.22-.04,.1-.08,.19-.13,.28-.21,.41-.44,.81-.7,1.19-.04,.07-.08,.13-.13,.19-.02,.03-.04,.07-.07,.1-.03,.06-.07,.11-.12,.16v.03l-.18,.22s-.08,.07-.11,.1-.12,.08-.15,.05c-.08,.22-.32,.33-.54,.25-.06-.02-.11-.05-.16-.08l-.05-.05c-.13-.13-.15-.33-.06-.49,.18-.69,.51-1.34,.95-1.91l.18-.24c-.05-.32-.05-.65,0-.97,.06-.33,.13-.65,.22-.97,0-.04,0-.07,.03-.11s0-.08,.04-.12l.03-.11c-.08-.09-.19-.15-.31-.17-.05,0-.11,0-.16,0-.25-.03-.48,.15-.52,.4-.26,.81-.61,1.59-1.05,2.32-.59,1.89-1.75,3.71-1.86,3.71-.11,.22-.37,.3-.59,.19,0,0-.01,0-.02-.01-.07-.03-.13-.07-.19-.12-.07-.06-.11-.15-.13-.24h0c-.02-.06-.02-.12,0-.17,.14-.56,.64-2.04,.86-2.65l.07-.19h0c.03-.12-.03-.25-.13-.31l-.33-.17-.16-.07-.67-1.36h0c-.07-.06-.09-.5,0-.51l.56-1.33s0-.02,0-.03h0c.02-.07,.02-.15,0-.23h0v-.08s-.01-.05-.03-.07c-.02-.04-.04-.08-.07-.11-.02-.03-.04-.05-.07-.07h0s-.06-.04-.09-.06c-.01,0-.03,0-.04,0h-.03c-.15-.04-.31-.06-.46-.04-.14,0-.26,.09-.31,.22-.01,.04-.03,.08-.05,.11-.2,.47-.5,.89-.88,1.24-.05,.05-.09,.11-.13,.18-.05,.09-.11,.21-.17,.32-.46,.82-1.2,1.86-1.22,1.94,0,.03-.01,.07-.02,.1h0c-.04,.16-.14,.29-.26,.39-.04,.03-.07,.06-.11,.08,0,.02-.01,.05-.03,.07h0c-.03,.07-.09,.13-.16,.16-.07,.04-.15,.05-.22,.04-.03,0-.07,0-.1,0-.06-.01-.12-.04-.17-.08-.05-.04-.1-.09-.13-.15v-.03h0c-.02-.07-.02-.14,0-.21-.02-.31,.06-.63,.24-.89,.04-.06,.38-1.23,.68-1.94l.03-.08,.03-.06,.07-.13h0s.05-.08,.06-.12c.02-.03,.02-.07-.02-.1-.02-.01-.04-.02-.06,0-.14,.04-.29,.04-.44,0-.15-.05-.26-.17-.3-.32h0s-.02-.07-.03-.11c-.02-.09-.02-.18,0-.27,.03-.17,.12-.34,.24-.46l1.65-1.71,.33-.32,1.59-1.66,.33-.19c.09-.05,.19-.09,.29-.11,1.12-.22,2.21-.56,3.25-1.03,.29,.06,3.56-3.38,5.73-6.14,1.04-1.33,1.86-2.5,1.9-3.04,.14-.54,.3-1.06,.46-1.58,.06-.19,.12-.37,.19-.55l.07-.19s.02-.06,.03-.09c.41-1.14,.91-2.24,1.51-3.29,.61-1.07,.52-2.41-.22-3.39-.44-.57-.92-1.11-1.43-1.62-.15-.15-.3-.29-.46-.43-.79-.68-1.41-1.53-1.81-2.5l-.06-.13h.12l.14-.05h.03l8.94-3.02c.24-.08,.43-.25,.55-.46l.04,.09c1.24,2.79,2.18,5.43,2.41,7.58,0,.18,.05,.35,.08,.53l.58,2.83c.09,.59,.06,1.18-.1,1.75Z"/>
      <text class="cls-10" transform="translate(34.54 206.63)"><tspan class="cls-14" x="0" y="0">S</tspan><tspan class="cls-4" x="3.75" y="0">ch</tspan><tspan class="cls-13" x="11.08" y="0">o</tspan><tspan class="cls-4" x="15.07" y="0">ol </tspan><tspan class="cls-16" x="23.04" y="0">S</tspan><tspan class="cls-8" x="26.75" y="0">p</tspan><tspan class="cls-5" x="30.87" y="0">o</tspan><tspan class="cls-15" x="34.85" y="0">r</tspan><tspan class="cls-4" x="37.73" y="0">ts </tspan><tspan class="cls-3" x="45.38" y="0">L</tspan><tspan class="cls-5" x="48.87" y="0">eague</tspan></text>
      <g>
        <path class="cls-6" d="M50,186.74s0-.01,0-.01"/>
        <g>
          <path class="cls-6" d="M18.52,178.28c-3.67,8.45-7.34,16.9-11.01,25.36"/>
          <path class="cls-6" d="M28.77,189.44c-1.16,.02-2.29,.03-3.37,.03-.98,0-1.93,0-2.84,0-3.42,0-6.39-.07-8.83-.15h-.06c-4.15-.13-13.31-.41-13.34-1.17,0-.16,.4-.3,.72-.39,7.13-2.22,13.79-1.27,13.79-1.27,.04,0,.07,0,.11,.02,3.19,.46,5.05,1.14,6.67,2.25,.38,.26,.68,.5,.94,.72,.7,.6,.99,1.08,1.13,1.35,.26,.49,.42,.99,.5,1.49,.27,1.64-.28,3.23-.58,4.1-.78,2.26-2.21,3.71-3.08,4.44,1.22-2.85,2.44-5.7,3.66-8.55,.41-.94,.81-1.89,1.21-2.83,2-4.65,3.99-9.31,5.99-13.96"/>
          <path class="cls-6" d="M35.36,179.64c-1.36,4.58-2.48,9.48-3.24,14.67-.08,.52-.15,1.05-.22,1.56"/>
          <path class="cls-6" d="M35.52,186c-.94,3.44-1.06,4.23-.97,4.26,.1,.03,.43-.94,1.29-2.32,.14-.23,1.23-1.96,1.51-1.83,.34,.16-.74,3.08-.49,3.18,.22,.09,1.05-2.06,1.78-1.94,.52,.08,.49,1.24,1.24,1.51,.48,.17,1.03-.12,1.4-.38"/>
          <path class="cls-6" d="M44.28,186.05c-.05-.23-.14-.43-.3-.49-.72-.26-2.83,2.32-2.24,3.67,.05,.12,.12,.28,.27,.32,.75,.23,2.23-2.87,2.53-2.72,.19,.09-.42,1.31-.03,1.67,.34,.31,1.28-.17,2.02-.62"/>
          <path class="cls-6" d="M47.79,185.95c-.74,3.39-.92,4.26-.92,4.26,.01,0,.26-3.04,1.91-3.72,.03-.01,.79-.31,1.11,0,.52,.51-.7,2.06-.08,2.78,.27,.31,.72,.28,.78,.27,.63-.05,1.21-.76,1.35-1.78"/>
          <path class="cls-6" d="M57.99,187.49c.17-1.3,.6-3.37,1.8-5.61,.69-1.3,2.01-3.74,3.24-3.52,1.14,.2,1.61,2.67,1.73,3.31,1.39,7.38-4.61,16.01-5.32,15.68-.98-.47,6.15-18.97,7.91-18.55,1.38,.33-1.21,15.11-.79,15.17,.21,.03,.61-3.49,2.23-7.69,1.44-3.74,3.64-8.37,4.46-8.13,.65,.2,.33,3.41-.07,5.46-.65,3.34-2.3,7.55-2.73,11.07-.07,.6-.17,1.61,.36,1.94,.44,.28,1.13-.04,1.44-.22"/>
          <path class="cls-6" d="M75.8,179.91c-.72,3.38-1.44,6.76-2.16,10.14"/>
          <path class="cls-6" d="M79.9,179.53c-.79,3.54-1.58,7.08-2.37,10.62,.26-.75,.73-1.79,1.62-2.8,.92-1.06,1.06-1.1,1.13-1.08,.59,.19-.2,3.15,.43,3.4,.27,.11,.81-.26,2-2.05"/>
          <path class="cls-6" d="M87.67,187.94c-.59,.45-1.39,.96-1.78,.7-.47-.31-.11-1.57-.32-1.62-.27-.07-.69,2.12-1.73,2.27-.34,.05-.69-.13-.86-.38-.61-.9,.9-3.31,1.94-3.18,.22,.03,.4,.16,.54,.32"/>
          <path class="cls-6" d="M90.15,179.74c-1.77,8.86-2.9,14.15-3.18,14.78"/>
          <path class="cls-6" d="M90.28,188s.83,.09,1.27-.49c.35-.46,.36-1.19,.11-1.32-.29-.16-.95,.48-1.29,.94-.79,1.06-1.08,2.7-.59,2.99,.63,.39,2.5-1.59,3.07-2.21"/>
          <path class="cls-6" d="M95.49,179.64c-2.14,10.55-3.08,14.41-3.42,15.05"/>
          <path class="cls-6" d="M95.54,188.02c.54,.05,1.03-.19,1.24-.59,.18-.35,.2-.88-.05-1.05-.32-.22-.98,.18-1.32,.51-1,.97-1.02,2.98-.4,3.29,.55,.27,1.73-.75,2.91-2.35"/>
          <path class="cls-6" d="M31.91,188.63c-.19,1.06-.97,1.77-1.78,1.78-.47,0-1-.22-1.24-.65-.63-1.1,.92-3.12,1.62-2.97,.32,.07,.53,.61,.49,1.02-.09,.83-1.28,1.59-3.02,1.62"/>
          <path class="cls-7" d="M76.04,190.1c-.92-.47-1.66-.99-2.1-1.47"/>
        </g>
        <path class="cls-6" d="M74.33,186.83c.21-.1,.45-.22,.72-.33,.66-.3,1.24-.45,1.65-.53"/>
      </g>
    </g>
  </g>
</svg>